<?xml version="1.0" encoding="utf-8"?>
<!-- Generator: Adobe Illustrator 21.0.2, SVG Export Plug-In . SVG Version: 6.00 Build 0)  -->
<svg version="1.1" id="Capa_1" xmlns="http://www.w3.org/2000/svg" xmlns:xlink="http://www.w3.org/1999/xlink" x="0px" y="0px"
	 viewBox="0 0 378.9 332.3" style="enable-background:new 0 0 378.9 332.3;" xml:space="preserve">
<style type="text/css">
	.st0{fill:#355DA8;}
</style>
<g>
	<path class="st0" d="M348.2,31.5c-19.9-19.9-46.3-30.8-74.4-30.8c-28.1,0-54.6,10.9-74.4,30.8l-9.8,9.8l-9.8-9.8
		c-19.9-19.9-46.3-30.8-74.4-30.8c-28.1,0-54.6,10.9-74.4,30.8c-41,41.1-41,107.8,0,148.9l147.1,147.1c2.4,2.4,5.4,3.9,8.5,4.5
		c1,0.2,2.1,0.3,3.2,0.3c4.2,0,8.3-1.6,11.5-4.8l147.1-147.1C389.2,139.4,389.2,72.6,348.2,31.5z M325.2,157.4L189.5,293.1
		L53.8,157.4c-28.4-28.4-28.4-74.5,0-102.9c13.7-13.7,32-21.3,51.4-21.3c19.4,0,37.7,7.6,51.4,21.3L178,75.8c6.1,6.1,16.9,6.1,23,0
		l21.3-21.3c13.7-13.7,32-21.3,51.4-21.3c19.4,0,37.7,7.6,51.4,21.3C353.5,82.9,353.5,129,325.2,157.4z"/>
</g>
</svg>
