<?xml version="1.0" encoding="utf-8"?>
<!-- Generator: Adobe Illustrator 21.0.2, SVG Export Plug-In . SVG Version: 6.00 Build 0)  -->
<svg version="1.1" id="Layer_1" xmlns="http://www.w3.org/2000/svg" xmlns:xlink="http://www.w3.org/1999/xlink" x="0px" y="0px"
	 viewBox="0 0 506 507" style="enable-background:new 0 0 506 507;" xml:space="preserve">
<style type="text/css">
	.st0{fill:#355DA8;}
</style>
<g>
	<g>
		<path class="st0" d="M338.2,320l-64.5-64.5V122.8c0-11.4-9.3-20.7-20.7-20.7c-11.4,0-20.7,9.3-20.7,20.7V264
			c0,5.5,2.2,10.7,6.1,14.6l70.6,70.6c4,4,9.3,6.1,14.6,6.1s10.6-2,14.6-6.1C346.3,341.1,346.3,328,338.2,320z"/>
	</g>
</g>
<circle class="st0" cx="253.1" cy="34.7" r="23.8"/>
<circle class="st0" cx="253.1" cy="474.1" r="23.8"/>
<circle class="st0" cx="473.2" cy="256" r="23.8"/>
<circle class="st0" cx="33.8" cy="256" r="23.8"/>
<path class="st0" d="M253.5,507c-67.7,0-131.4-26.4-179.3-74.2S0,321.2,0,253.5c0-67.7,26.4-131.4,74.2-179.3S185.8,0,253.5,0
	c67.7,0,131.4,26.4,179.3,74.2S507,185.8,507,253.5c0,67.7-26.4,131.4-74.2,179.3S321.2,507,253.5,507z M253.5,34
	C132.5,34,34,132.5,34,253.5c0,121,98.5,219.5,219.5,219.5c121,0,219.5-98.5,219.5-219.5C473,132.5,374.5,34,253.5,34z"/>
</svg>
