<?xml version="1.0" encoding="utf-8"?>
<!-- Generator: Adobe Illustrator 21.0.2, SVG Export Plug-In . SVG Version: 6.00 Build 0)  -->
<svg version="1.1" id="Capa_1" xmlns="http://www.w3.org/2000/svg" xmlns:xlink="http://www.w3.org/1999/xlink" x="0px" y="0px"
	 viewBox="0 0 512 305.5" style="enable-background:new 0 0 512 305.5;" xml:space="preserve">
<style type="text/css">
	.st0{fill:#355DA8;}
</style>
<g>
	<g>
		<path class="st0" d="M503.2,131.2c-5.5-6.5-11.4-12.5-17-18.1c-32.5-32-67.4-58.8-105.9-78.7c-27.6-14.3-54.7-23.7-80.9-28.4
			c-15.8-2.8-30.3-3.6-43.1-3.6c-13.3,0-28.2,0.7-43.9,3.6c-26.5,4.9-53.6,14.3-80.9,28.4C94,53.7,58.9,80.3,25.5,113.1
			c-6.4,6.3-12,12.2-17,18.1c-11.4,13.6-11.4,31.5,0,45c13.6,16.2,31.7,33,54.5,51.2c48.4,38.6,95.9,63.1,142.4,73.2
			c16.4,3.5,33.4,5,50.9,5c17,0,33.7-1.5,50-5c47-10.1,94.6-34.5,142.9-73.2c24.2-19.4,41.9-36.7,53.9-51.2
			C514.9,162.3,515,145,503.2,131.2z M479.9,156.2c-12.2,15-29.1,30.6-50.1,47.3c-43.9,35-87,57.8-129.9,66.8
			c-15.8,3.3-30.3,4.4-43.7,4.4h-0.8c-13.6,0-27.8-1.2-43.1-4.4c-42.3-9-85.8-31.2-130.4-66.8c-21-16.7-37.5-32.5-49.5-47.3
			c-1.9-1.4-1.9-3.1,0-5c1.4-1.9,3.8-4.8,7.2-8.3c3.5-3.7,6.1-6.4,7.5-8.1c32.3-31.7,65.2-55.6,98.4-72.3
			c26.6-13.3,50.6-22.2,72.3-25.9c12.5-2.1,25.3-3.3,38.4-3.3c12.5,0,25,1.1,38.1,3.3c22,3.8,46.1,12.6,72.3,25.9
			c33.9,17.1,66.5,40.9,97.9,72.3c7.2,7.2,12.3,12.7,15.3,16.4C481.4,153.1,481.3,154.8,479.9,156.2z"/>
		<path class="st0" d="M256.3,56.1c-27,0-50.3,9.4-69.5,28.6c-19.2,19.2-28.6,42.3-28.6,69.2c0,27,9.4,49.8,28.6,69
			c19.1,19,42.5,28.4,69.5,28.4c27,0,49.8-9.4,68.7-28.4c19.2-19.2,28.6-42,28.6-69c0-27-9.5-50-28.6-69.2
			C306,65.6,283.3,56.1,256.3,56.1z M303.3,201.3c-13.1,13.1-28.6,19.5-47,19.5c-18.6,0-34.5-6.7-47.6-19.7
			c-13.1-13.1-19.7-28.9-19.7-47c0-18.6,6.7-34.2,19.7-47.3C221.9,93.7,237.7,87,256.3,87c18.6,0,34.1,6.7,47,19.7
			c13,13.1,19.5,28.6,19.5,47.3C322.8,172.4,316.4,188.2,303.3,201.3z"/>
	</g>
</g>
</svg>
