<?xml version="1.0" encoding="utf-8"?>
<!-- Generator: Adobe Illustrator 17.0.0, SVG Export Plug-In . SVG Version: 6.00 Build 0)  -->
<!DOCTYPE svg PUBLIC "-//W3C//DTD SVG 1.1//EN" "http://www.w3.org/Graphics/SVG/1.1/DTD/svg11.dtd">
<svg version="1.1" id="Слой_1" xmlns="http://www.w3.org/2000/svg" xmlns:xlink="http://www.w3.org/1999/xlink" x="0px" y="0px"
	 width="562.87px" height="113.821px" viewBox="0 0 562.87 113.821" enable-background="new 0 0 562.87 113.821"
	 xml:space="preserve">
<g>
	<g>
		<path fill="#355DA8" d="M25.97,35.621h-8.905v32.286H5.963V35.621H0v-9.65h5.963V15.299c0-5.544,0.955-9.506,2.864-11.887
			C10.657,1.138,13.613,0,17.693,0c2.641,0,5.4,0.536,8.277,1.608v9.415c-1.831-0.915-3.491-1.373-4.982-1.373
			c-2.616,0-3.923,1.961-3.923,5.884V25.97h8.905V35.621z"/>
		<path fill="#355DA8" d="M56.413,35.777c-1.831-0.915-3.753-1.373-5.767-1.373c-2.197,0-4.08,0.746-5.649,2.236
			c-2.171,2.093-3.256,5.361-3.256,9.808v21.458H30.639V25.97h10.827v5.531c2.17-4.655,5.257-6.983,9.258-6.983
			c1.857,0,3.752,0.484,5.688,1.452V35.777z"/>
		<path fill="#355DA8" d="M105.175,67.907H94.191v-6.355c-2.77,5.31-7.288,7.964-13.558,7.964c-6.426,0-11.403-2.21-14.929-6.63
			c-3.266-4.054-4.898-9.376-4.898-15.966c0-6.329,1.924-11.671,5.773-16.025s8.549-6.532,14.1-6.532
			c6.206,0,10.709,2.38,13.511,7.14V25.97h10.984V67.907z M94.191,45.742c0-3.374-0.875-6.093-2.624-8.16
			c-1.88-2.223-4.503-3.334-7.871-3.334c-3.237,0-5.861,1.125-7.871,3.374c-2.089,2.328-3.133,5.427-3.133,9.298
			c0,3.818,0.946,6.852,2.839,9.101c1.893,2.25,4.392,3.374,7.499,3.374c3.811,0,6.591-1.02,8.34-3.06
			C93.25,54.164,94.191,50.633,94.191,45.742z"/>
		<path fill="#355DA8" d="M156.605,67.907h-11.102V43.388c0-3.609-0.563-6.12-1.687-7.532c-0.941-1.229-2.498-1.844-4.668-1.844
			c-6.696,0-10.043,3.714-10.043,11.141v22.753h-10.984V25.97h10.67v6.041c1.412-2.249,3.517-4.119,6.316-5.61
			c2.589-1.359,5.035-2.04,7.336-2.04c4.577,0,8.107,1.595,10.592,4.786c2.379,3.06,3.57,7.297,3.57,12.71V67.907z"/>
		<path fill="#355DA8" d="M202.151,66.69c-4.237,1.778-8.251,2.668-12.043,2.668c-6.852,0-12.501-2.014-16.947-6.042
			c-4.604-4.158-6.904-9.585-6.904-16.28c0-6.459,2.275-11.854,6.826-16.183c4.551-4.328,10.226-6.492,17.026-6.492
			c3.871,0,7.885,0.889,12.043,2.667v11.534c-4.368-2.563-8.107-3.845-11.22-3.845c-8.526,0-12.789,4.106-12.789,12.318
			c0,7.977,4.262,11.965,12.789,11.965c3.975,0,7.715-1.373,11.22-4.119V66.69z"/>
		<path fill="#355DA8" d="M250.718,67.907h-11.102V43.388c0-3.583-0.602-6.094-1.805-7.532c-1.02-1.229-2.628-1.844-4.825-1.844
			c-6.696,0-10.043,3.714-10.043,11.141v22.753h-11.102V1.608h11.102v29.422c1.203-2.249,3.203-3.975,6.002-5.178
			c2.328-0.994,4.76-1.491,7.297-1.491c4.603,0,8.186,1.595,10.749,4.786c2.484,3.086,3.727,7.323,3.727,12.71V67.907z"/>
		<path fill="#355DA8" d="M275.433,13.77c0,1.726-0.627,3.197-1.883,4.414c-1.255,1.216-2.772,1.824-4.551,1.824
			c-1.726,0-3.23-0.621-4.511-1.863c-1.282-1.242-1.922-2.7-1.922-4.374c0-1.778,0.641-3.321,1.922-4.629
			c1.281-1.308,2.785-1.962,4.511-1.962c1.752,0,3.262,0.654,4.531,1.962C274.798,10.448,275.433,11.991,275.433,13.77z
			 M274.57,67.907h-11.102V24.283h11.102V67.907z"/>
		<path fill="#355DA8" d="M318.272,56.02c0,3.897-1.308,7.048-3.923,9.455c-2.903,2.693-7.062,4.041-12.475,4.041
			c-11.769,0-17.653-5.034-17.653-15.104h10.827c0,3.949,2.171,5.924,6.512,5.924c3.766,0,5.649-1.543,5.649-4.629
			c0-1.438-0.537-2.55-1.608-3.334c-0.863-0.627-2.721-1.398-5.571-2.314c-5.362-1.726-9.023-3.583-10.984-5.571
			c-1.883-1.909-2.825-4.629-2.825-8.16c0-3.713,1.713-6.695,5.139-8.944c3.007-1.961,6.577-2.942,10.71-2.942
			c3.504,0,6.63,1.059,9.376,3.178c3.321,2.563,4.982,6.055,4.982,10.474h-10.67c0-1.856-0.333-3.112-1-3.766
			s-1.759-0.981-3.275-0.981c-3.113,0-4.668,1.177-4.668,3.531c0,1.857,1.778,3.361,5.335,4.511
			c5.152,1.674,8.892,3.387,11.22,5.139C316.637,49.011,318.272,52.176,318.272,56.02z"/>
		<path fill="#355DA8" d="M369.938,47.429h-33.502c0,3.819,0.915,6.839,2.746,9.062c1.961,2.407,4.747,3.609,8.356,3.609
			c5.178,0,8.408-1.791,9.69-5.375h11.416c-1.909,5.152-4.55,8.905-7.924,11.259c-3.374,2.354-7.768,3.531-13.181,3.531
			c-6.983,0-12.567-2.249-16.751-6.748c-3.95-4.21-5.924-9.494-5.924-15.849c0-6.224,2.17-11.54,6.512-15.947
			c4.341-4.406,9.729-6.61,16.163-6.61c6.695,0,12.069,2,16.124,6.002C367.845,34.522,369.938,40.21,369.938,47.429z
			 M357.973,40.367c-2.171-4.733-5.649-7.101-10.435-7.101c-4.682,0-8.056,2.368-10.121,7.101H357.973z"/>
		<path fill="#355DA8" d="M411.09,67.828h-11.102V1.608h11.102V67.828z"/>
		<path fill="#355DA8" d="M507.085,67.907h-10.984V41.701c0-3.138-0.435-5.296-1.303-6.473c-0.71-0.967-1.921-1.451-3.631-1.451
			c-5.315,0-7.973,3.322-7.973,9.964v24.166H472.21V41.701c0-3.06-0.432-5.178-1.295-6.355c-0.759-1.046-2.04-1.569-3.845-1.569
			c-5.152,0-7.729,3.348-7.729,10.043v24.087h-10.984V25.97h10.671v4.747c2.668-4.237,6.748-6.355,12.24-6.355
			c4.394,0,7.714,2.066,9.964,6.198c3.348-4.132,7.31-6.198,11.887-6.198c9.311,0,13.966,5.78,13.966,17.339V67.907z"/>
		<path fill="#355DA8" d="M562.87,46.919c0,6.276-2.132,11.586-6.394,15.927c-4.421,4.446-9.979,6.669-16.673,6.669
			c-6.695,0-12.254-2.223-16.673-6.669c-4.264-4.341-6.395-9.651-6.395-15.927c0-6.277,2.131-11.573,6.395-15.888
			c4.419-4.446,9.978-6.669,16.673-6.669c6.694,0,12.252,2.223,16.673,6.669C560.738,35.346,562.87,40.642,562.87,46.919z
			 M550.944,46.919c0-4.001-1.072-7.114-3.217-9.337c-2.014-2.066-4.655-3.099-7.924-3.099c-3.27,0-5.911,1.033-7.925,3.099
			c-2.171,2.25-3.256,5.362-3.256,9.337c0,4.001,1.085,7.114,3.256,9.336c2.014,2.093,4.655,3.139,7.925,3.139
			c3.269,0,5.91-1.046,7.924-3.139C549.872,54.033,550.944,50.92,550.944,46.919z"/>
		<g>
			<path fill="none" stroke="#355DA8" stroke-width="2.8152" stroke-miterlimit="10" d="M435.162,13.263
				c0,1.413-0.514,2.617-1.542,3.613c-1.028,0.995-2.269,1.493-3.725,1.493c-1.413,0-2.644-0.508-3.693-1.525
				c-1.049-1.016-1.573-2.21-1.573-3.58c0-1.456,0.524-2.719,1.573-3.789c1.049-1.07,2.28-1.606,3.693-1.606
				c1.434,0,2.67,0.536,3.709,1.606C434.643,10.544,435.162,11.807,435.162,13.263z"/>
			<rect x="424.345" y="24.283" fill="#355DA8" width="11.102" height="43.624"/>
		</g>
	</g>
	<path fill-rule="evenodd" clip-rule="evenodd" fill="#111111" d="M474.311,104.486c-2.181,1.932-5.404,2.097-8.177,2.111
		c-2.391,0.011-4.815,0.064-7.131-0.619c-4.37-1.291-7.79-4.396-10.751-7.738c-5.254-5.928-10.252-14.302-18.631-15.992
		c-4.74-0.956-9.498,0.531-12.544,4.379c-0.395,0.499-0.734,1.022-1.027,1.563c-0.294-0.541-0.633-1.064-1.027-1.563
		c-3.047-3.848-7.804-5.335-12.545-4.379c-8.379,1.69-13.377,10.064-18.63,15.992c-2.961,3.342-6.381,6.447-10.752,7.738
		c-2.315,0.683-4.74,0.63-7.13,0.619c-2.773-0.014-5.996-0.179-8.177-2.111c-0.179-0.159-0.425,0.085-0.262,0.262
		c3.345,3.632,7.397,6.351,12.173,7.691c5.862,1.645,12.297,1.748,18.264,0.691c5.852-1.038,11.218-3.344,16.302-6.385
		c2.499-1.495,5.072-2.887,7.526-4.453c1.423-0.908,3.089-2.001,4.257-3.382c1.168,1.381,2.834,2.474,4.257,3.382
		c2.455,1.567,5.027,2.959,7.526,4.453c5.083,3.041,10.45,5.347,16.302,6.385c5.967,1.057,12.401,0.954,18.264-0.691
		c4.777-1.34,8.829-4.059,12.174-7.691C474.737,104.572,474.49,104.327,474.311,104.486z"/>
</g>
</svg>
